REM MD5 c2ed166483583ba748473196c446ce7f
FILE "Chaos Control (Japan).bin" BINARY
  TRACK 01 MODE2/2352
    INDEX 01 00:00:00
  TRACK 02 AUDIO
    INDEX 00 63:52:73
    INDEX 01 63:54:73
  TRACK 03 AUDIO
    INDEX 00 66:22:72
    INDEX 01 66:24:72
REM LEADOUT 69:43:28
